<?xml version="1.0" encoding="UTF-8"?>
<svg width="167px" height="76px" viewBox="0 0 167 76" version="1.1" xmlns="http://www.w3.org/2000/svg" xmlns:xlink="http://www.w3.org/1999/xlink">
    <!-- Generator: Sketch 48.2 (47327) - http://www.bohemiancoding.com/sketch -->
    <title>PBA_logo_white</title>
    <desc>Created with Sketch.</desc>
    <defs>
        <polygon id="path-1" points="0.0300900901 0.2815 160.793919 0.2815 160.793919 76 0.0300900901 76"></polygon>
    </defs>
    <g id="Homepage" stroke="none" stroke-width="1" fill="none" fill-rule="evenodd" transform="translate(-131.000000, -28.000000)">
        <g id="PBA_logo_white" transform="translate(131.000000, 28.000000)">
            <path d="M19.3088108,57.977 C19.9000811,57.977 20.4166276,57.906 20.859955,57.7655 C21.3032823,57.6245 21.6743934,57.424 21.9727868,57.1665 C22.2716817,56.908 22.4948498,56.593 22.6427928,56.223 C22.7902342,55.853 22.863955,55.443 22.863955,54.991 C22.863955,54.082 22.5670661,53.3735 21.9727868,52.8655 C21.3785075,52.358 20.4908498,52.104 19.3088108,52.104 L14.2371261,52.104 L14.2371261,57.977 L19.3088108,57.977 Z M11.1152793,49.3945 L19.2300751,49.3945 C20.4121141,49.3945 21.4361802,49.5215 22.3027748,49.777 C23.1698709,50.0325 23.888021,50.401 24.4592312,50.8815 C25.0309429,51.3635 25.4562162,51.9505 25.7345495,52.645 C26.0143874,53.3385 26.1533033,54.1215 26.1533033,54.991 C26.1533033,55.8095 26.0153904,56.5655 25.7395646,57.2595 C25.4637387,57.954 25.041976,58.554 24.4742763,59.061 C23.9065766,59.569 23.1894294,59.965 22.3228348,60.249 C21.4557387,60.534 20.4316727,60.676 19.2496336,60.676 L14.2371261,60.666 L14.2371261,64.741 L11.1152793,64.741 L11.1152793,49.3945 Z" id="Fill-1" fill="#FFFFFE"></path>
            <path d="M40.5579309,62.031 C41.3979459,62.031 42.0363574,61.851 42.4731652,61.492 C42.909973,61.1315 43.1281261,60.6245 43.1281261,59.97 C43.1281261,59.3145 42.909973,58.8045 42.4731652,58.438 C42.0363574,58.0705 41.3979459,57.8885 40.5579309,57.8885 L34.1958829,57.8885 L34.1958829,62.031 L40.5579309,62.031 Z M40.4982523,55.2855 C40.7675586,55.2855 41.0303453,55.296 41.2866126,55.315 C41.7259279,54.8965 41.9460871,54.418 41.9460871,53.8815 C41.9460871,53.326 41.7279339,52.895 41.2911261,52.591 C40.8543183,52.287 40.2159069,52.134 39.3758919,52.134 L34.1958829,52.134 L34.1958829,55.2855 L40.4982523,55.2855 Z M31.0735345,49.3945 L39.2966547,49.3945 C40.3016637,49.3945 41.1762823,49.5015 41.9215135,49.7135 C42.6662432,49.926 43.2855976,50.2195 43.7775706,50.593 C44.270045,50.965 44.6361411,51.409 44.8758589,51.923 C45.1155766,52.437 45.2359369,52.992 45.2359369,53.587 C45.2359369,54.5625 44.927012,55.4165 44.3096637,56.15 C45.0192883,56.569 45.5473694,57.1115 45.8954114,57.7795 C46.242952,58.4475 46.416973,59.2065 46.416973,60.058 C46.416973,60.771 46.2976156,61.4165 46.0573964,61.9915 C45.8181802,62.5675 45.4535886,63.0605 44.9646246,63.4695 C44.4756607,63.8785 43.8583123,64.1935 43.1130811,64.412 C42.3678498,64.6315 41.4897207,64.741 40.4786937,64.741 L31.0735345,64.741 L31.0735345,49.3945 Z" id="Fill-2" fill="#FFFFFE"></path>
            <path d="M61.3531922,59.5965 L58.0247267,52.6255 L54.784024,59.5965 L61.3531922,59.5965 Z M56.3406847,49.3945 L59.6495916,49.3945 L67.0948829,64.741 L63.8155646,64.741 L62.5843784,62.1585 L53.5924565,62.1585 L52.4008889,64.741 L49.112042,64.741 L56.3406847,49.3945 Z" id="Fill-3" fill="#FFFFFE"></path>
            <polyline id="Fill-4" fill="#FFFFFE" points="73.5321562 58.0255 70.1635706 58.0255 70.1635706 55.845 73.5321562 55.845 73.5321562 52.517 75.8164955 52.517 75.8164955 55.845 79.1946096 55.845 79.1946096 58.0255 75.8164955 58.0255 75.8164955 61.531 73.5321562 61.531 73.5321562 58.0255"></polyline>
            <path d="M104.516925,15.805 C104.516925,14.2365 103.443712,13.4155 101.591165,13.4155 L98.9452432,13.4155 L98.9452432,18.253 L101.591165,18.253 C103.443712,18.253 104.516925,17.4175 104.516925,15.805 Z M105.648814,15.7755 C105.648814,18.033 104.178411,19.338 101.634796,19.338 L98.9452432,19.338 L98.9452432,22.592 L97.7682192,22.592 L97.7682192,12.331 L101.634796,12.331 C104.178411,12.331 105.648814,13.5915 105.648814,15.7755 Z" id="Fill-5" fill="#FFFFFE"></path>
            <path d="M112.469736,14.8375 L112.469736,15.9515 C110.83785,15.9225 109.823312,16.934 109.691417,18.4875 L109.691417,22.592 L108.543982,22.592 L108.543982,14.8815 L109.691417,14.8815 L109.691417,16.597 C110.205456,15.468 111.161318,14.852 112.469736,14.8375" id="Fill-6" fill="#FFFFFE"></path>
            <path d="M119.540907,19.9385 L119.540907,19.0005 L117.130691,19.0005 C115.836315,19.0005 115.15979,19.3965 115.15979,20.261 C115.15979,21.112 115.850859,21.683 116.939117,21.683 C118.248036,21.683 119.247529,21.0385 119.540907,19.9385 Z M119.555952,22.592 L119.555952,21.3905 C118.938604,22.226 117.953655,22.636 116.717955,22.636 C115.115658,22.636 114.086577,21.6245 114.086577,20.3055 C114.086577,18.9565 115.15979,18.1065 116.983249,18.092 L119.526865,18.092 L119.526865,17.608 C119.526865,16.4795 118.821252,15.7905 117.453156,15.7905 C116.601105,15.7905 115.807228,16.1125 114.998808,16.6845 L114.513354,15.878 C115.512847,15.2185 116.350856,14.8375 117.674318,14.8375 C119.585541,14.8375 120.64421,15.849 120.658754,17.491 L120.673799,22.592 L119.555952,22.592 Z" id="Fill-7" fill="#FFFFFE"></path>
            <path d="M127.436045,15.864 C125.833748,15.864 124.686814,17.0365 124.686814,18.737 C124.686814,20.452 125.833748,21.6245 127.436045,21.6245 C128.451084,21.6245 129.289093,21.2725 129.832721,20.628 L130.494201,21.302 C129.803132,22.1375 128.729919,22.636 127.391913,22.636 C125.142679,22.636 123.554423,21.0385 123.554423,18.737 C123.554423,16.45 125.156721,14.8375 127.391913,14.8375 C128.641655,14.8375 129.670736,15.2625 130.377351,15.9805 L129.744958,16.772 C129.156697,16.201 128.376862,15.864 127.436045,15.864" id="Fill-8" fill="#FFFFFE"></path>
            <path d="M137.682724,22.064 C137.139096,22.431 136.550835,22.636 135.933486,22.636 C134.801598,22.6505 133.963087,21.9765 133.963087,20.452 L133.963087,16.01 L132.845742,16.01 L132.845742,15.116 L133.963087,15.116 L133.963087,13.093 L135.094976,13.093 L135.094976,15.116 L137.550327,15.116 L137.550327,16.01 L135.094976,16.01 L135.094976,20.261 C135.094976,21.1995 135.463078,21.5805 136.12506,21.5805 C136.522249,21.566 136.93348,21.434 137.359255,21.1845 L137.682724,22.064" id="Fill-9" fill="#FFFFFE"></path>
            <path d="M140.520219,22.592 L141.652108,22.592 L141.652108,14.8815 L140.520219,14.8815 L140.520219,22.592 Z M141.828637,12.668 C141.828637,13.108 141.50567,13.445 141.078892,13.445 C140.652616,13.445 140.328646,13.108 140.328646,12.668 C140.328646,12.214 140.652616,11.891 141.078892,11.891 C141.50567,11.891 141.828637,12.214 141.828637,12.668 Z" id="Fill-10" fill="#FFFFFE"></path>
            <path d="M148.650562,15.864 C147.047763,15.864 145.90133,17.0365 145.90133,18.737 C145.90133,20.452 147.047763,21.6245 148.650562,21.6245 C149.665099,21.6245 150.502607,21.2725 151.046736,20.628 L151.708718,21.302 C151.017649,22.1375 149.944435,22.636 148.605928,22.636 C146.357195,22.636 144.76894,21.0385 144.76894,18.737 C144.76894,16.45 146.371237,14.8375 148.605928,14.8375 C149.85567,14.8375 150.885252,15.2625 151.590865,15.9805 L150.958973,16.772 C150.370712,16.201 149.591378,15.864 148.650562,15.864" id="Fill-11" fill="#FFFFFE"></path>
            <path d="M159.264339,19.9385 L159.264339,19.0005 L156.853622,19.0005 C155.559748,19.0005 154.883222,19.3965 154.883222,20.261 C154.883222,21.112 155.574291,21.683 156.66255,21.683 C157.970967,21.683 158.970459,21.0385 159.264339,19.9385 Z M159.278883,22.592 L159.278883,21.3905 C158.662036,22.226 157.676586,22.636 156.441387,22.636 C154.83909,22.636 153.810009,21.6245 153.810009,20.3055 C153.810009,18.9565 154.883222,18.1065 156.706682,18.092 L159.250297,18.092 L159.250297,17.608 C159.250297,16.4795 158.544183,15.7905 157.176589,15.7905 C156.324036,15.7905 155.530661,16.1125 154.721739,16.6845 L154.236787,15.878 C155.236279,15.2185 156.074288,14.8375 157.397751,14.8375 C159.308471,14.8375 160.367141,15.849 160.382186,17.491 L160.39673,22.592 L159.278883,22.592 Z" id="Fill-12" fill="#FFFFFE"></path>
            <polygon id="Fill-13" fill="#FFFFFE" points="164.130408 22.592 165.277342 22.592 165.277342 11.7155 164.130408 11.7155"></polygon>
            <path d="M104.693955,39.2035 C104.693955,38.06 103.722547,37.4005 102.04703,37.4005 L98.9452432,37.4005 L98.9452432,41.0505 L102.04703,41.0505 C103.722547,41.0505 104.693955,40.391 104.693955,39.2035 Z M104.23809,34.615 C104.23809,33.56 103.429168,32.959 102.04703,32.959 L98.9452432,32.959 L98.9452432,36.3155 L102.04703,36.3155 C103.429168,36.3155 104.23809,35.7 104.23809,34.615 Z M105.428655,34.439 C105.428655,35.6415 104.737586,36.5065 103.531976,36.7555 C105.01642,36.975 105.884018,37.943 105.884018,39.3505 C105.884018,41.0945 104.502381,42.1355 102.179426,42.1355 L97.7682192,42.1355 L97.7682192,31.874 L102.106207,31.874 C104.178411,31.874 105.428655,32.827 105.428655,34.439 Z" id="Fill-14" fill="#FFFFFE"></path>
            <path d="M114.880955,37.7965 C114.807736,36.301 113.808243,35.3335 112.293207,35.3335 C110.808261,35.3335 109.749592,36.301 109.58861,37.7965 L114.880955,37.7965 Z M115.910036,38.7055 L109.58861,38.7055 C109.778679,40.2295 110.882483,41.2265 112.396015,41.2265 C113.351877,41.2265 114.189886,40.8745 114.792189,40.244 L115.424583,40.9035 C114.689381,41.71 113.602126,42.1795 112.308252,42.1795 C110.028928,42.1795 108.455718,40.5815 108.455718,38.28 C108.455718,35.9785 110.043973,34.3955 112.293207,34.381 C114.792189,34.381 116.027889,36.096 115.910036,38.7055 Z" id="Fill-15" fill="#FFFFFE"></path>
            <path d="M126.157718,37.386 L126.157718,42.1355 L125.010282,42.1355 L125.010282,37.679 C125.010282,36.301 124.187318,35.4805 122.819724,35.4805 C121.172793,35.495 120.202889,36.6675 120.202889,38.3535 L120.202889,42.1355 L119.055955,42.1355 L119.055955,31.2585 L120.202889,31.2585 L120.202889,36.1545 C120.731973,34.9525 121.790643,34.3955 123.216411,34.381 C125.069459,34.381 126.157718,35.5095 126.157718,37.386" id="Fill-16" fill="#FFFFFE"></path>
            <path d="M134.610024,39.4815 L134.610024,38.5435 L132.198805,38.5435 C130.904931,38.5435 130.228907,38.9395 130.228907,39.8045 C130.228907,40.655 130.919976,41.2265 132.007733,41.2265 C133.316652,41.2265 134.316144,40.5815 134.610024,39.4815 Z M134.624568,42.1355 L134.624568,40.9335 C134.007721,41.769 133.02227,42.1795 131.787072,42.1795 C130.184273,42.1795 129.155694,41.168 129.155694,39.849 C129.155694,38.5 130.228907,37.6495 132.051865,37.6355 L134.59548,37.6355 L134.59548,37.151 C134.59548,36.0225 133.889868,35.3335 132.522273,35.3335 C131.669721,35.3335 130.875844,35.656 130.066922,36.228 L129.58197,35.4215 C130.581462,34.762 131.419973,34.381 132.742934,34.381 C134.654156,34.381 135.712826,35.3925 135.727369,37.034 L135.742414,42.1355 L134.624568,42.1355 Z" id="Fill-17" fill="#FFFFFE"></path>
            <polyline id="Fill-18" fill="#FFFFFE" points="138.961553 34.425 141.431447 40.9775 143.886799 34.425 145.048778 34.425 142.004664 42.1355 140.814099 42.1355 137.740898 34.425 138.961553 34.425"></polyline>
            <path d="M147.503126,42.1355 L148.635015,42.1355 L148.635015,34.425 L147.503126,34.425 L147.503126,42.1355 Z M148.811042,32.2115 C148.811042,32.651 148.488577,32.988 148.061799,32.988 C147.635523,32.988 147.311553,32.651 147.311553,32.2115 C147.311553,31.757 147.635523,31.4345 148.061799,31.4345 C148.488577,31.4345 148.811042,31.757 148.811042,32.2115 Z" id="Fill-19" fill="#FFFFFE"></path>
            <path d="M152.898279,38.28 C152.898279,40.0095 154.059757,41.1825 155.677601,41.1825 C157.294441,41.1825 158.45642,40.0095 158.45642,38.28 C158.45642,36.58 157.294441,35.3925 155.677601,35.3925 C154.059757,35.3925 152.898279,36.58 152.898279,38.28 Z M159.602853,38.265 C159.602853,40.5815 157.970967,42.1795 155.677601,42.1795 C153.383733,42.1795 151.751847,40.5815 151.751847,38.265 C151.751847,35.9785 153.383733,34.381 155.677601,34.381 C157.970967,34.381 159.602853,35.9785 159.602853,38.265 Z" id="Fill-20" fill="#FFFFFE"></path>
            <path d="M166.644435,34.381 L166.644435,35.495 C165.01255,35.4655 163.998012,36.477 163.865616,38.0305 L163.865616,42.1355 L162.719183,42.1355 L162.719183,34.425 L163.865616,34.425 L163.865616,36.14 C164.380156,35.011 165.33652,34.3955 166.644435,34.381" id="Fill-21" fill="#FFFFFE"></path>
            <path d="M103.796769,57.97 L101.458769,52.693 L99.1508589,57.97 L103.796769,57.97 Z M104.267177,59.055 L98.6654054,59.055 L97.51797,61.6785 L96.2687297,61.6785 L100.885553,51.417 L102.106207,51.417 L106.707483,61.6785 L105.428655,61.6785 L104.267177,59.055 Z" id="Fill-22" fill="#FFFFFE"></path>
            <path d="M116.351357,56.9295 L116.351357,61.6785 L115.204423,61.6785 L115.204423,57.2225 C115.204423,55.8445 114.380958,55.0235 113.013865,55.0235 C111.484787,55.0385 110.543468,56.0495 110.411072,57.5445 L110.411072,61.6785 L109.26464,61.6785 L109.26464,53.968 L110.411072,53.968 L110.411072,55.6685 C110.955201,54.496 111.998826,53.939 113.411054,53.924 C115.263601,53.924 116.351357,55.053 116.351357,56.9295" id="Fill-23" fill="#FFFFFE"></path>
            <path d="M124.804165,59.025 L124.804165,58.087 L122.393447,58.087 C121.099574,58.087 120.423048,58.483 120.423048,59.348 C120.423048,60.1985 121.114117,60.77 122.201874,60.77 C123.510793,60.77 124.510285,60.1245 124.804165,59.025 Z M124.81921,61.6785 L124.81921,60.477 C124.201862,61.312 123.216411,61.723 121.981213,61.723 C120.378414,61.723 119.349333,60.711 119.349333,59.392 C119.349333,58.0435 120.423048,57.193 122.246508,57.1785 L124.789622,57.1785 L124.789622,56.6945 C124.789622,55.566 124.084009,54.877 122.716414,54.877 C121.863862,54.877 121.069985,55.199 120.261565,55.771 L119.776111,54.9645 C120.775604,54.3055 121.614114,53.924 122.937577,53.924 C124.848297,53.924 125.907468,54.936 125.921511,56.5775 L125.936556,61.6785 L124.81921,61.6785 Z" id="Fill-24" fill="#FFFFFE"></path>
            <polygon id="Fill-25" fill="#FFFFFE" points="129.670234 61.6785 130.81767 61.6785 130.81767 50.802 129.670234 50.802"></polygon>
            <path d="M134.933994,64.5665 C134.286556,64.5665 133.772015,64.3905 133.301607,64.0095 L133.786559,63.1005 C134.139114,63.35 134.492171,63.4675 134.874315,63.4675 C135.477622,63.4675 135.977619,63.086 136.286042,62.353 L136.609511,61.6205 L133.404916,53.968 L134.610024,53.968 L137.182727,60.3885 L139.638078,53.968 L140.814601,53.968 L137.256447,62.778 C136.771495,63.951 135.962072,64.5665 134.933994,64.5665" id="Fill-26" fill="#FFFFFE"></path>
            <path d="M145.210261,54.877 C144.342664,54.877 143.681183,55.185 143.681183,55.9175 C143.681183,57.6625 148.003625,56.768 148.003625,59.539 C148.003625,61.048 146.651075,61.723 145.166129,61.723 C144.063327,61.723 142.930937,61.3415 142.195736,60.638 L142.637559,59.8025 C143.298538,60.4175 144.29803,60.7845 145.210261,60.7845 C146.121489,60.7845 146.857192,60.433 146.871234,59.6555 C146.915366,57.7795 142.578381,58.732 142.592925,56.0055 C142.592925,54.54 143.872255,53.91 145.28348,53.91 C146.209754,53.91 147.10694,54.188 147.753877,54.613 L147.312556,55.4925 C146.709751,55.1115 145.930417,54.877 145.210261,54.877" id="Fill-27" fill="#FFFFFE"></path>
            <path d="M150.987559,61.6785 L152.119447,61.6785 L152.119447,53.968 L150.987559,53.968 L150.987559,61.6785 Z M152.295976,51.755 C152.295976,52.1945 151.973009,52.5315 151.546733,52.5315 C151.119955,52.5315 150.795985,52.1945 150.795985,51.755 C150.795985,51.3005 151.119955,50.978 151.546733,50.978 C151.973009,50.978 152.295976,51.3005 152.295976,51.755 Z" id="Fill-28" fill="#FFFFFE"></path>
            <g id="Group-32">
                <mask id="mask-2" fill="white">
                    <use xlink:href="#path-1"></use>
                </mask>
                <g id="Clip-30"></g>
                <path d="M158.000556,54.877 C157.132958,54.877 156.471477,55.185 156.471477,55.9175 C156.471477,57.6625 160.793919,56.768 160.793919,59.539 C160.793919,61.048 159.441369,61.723 157.956423,61.723 C156.853622,61.723 155.721231,61.3415 154.98603,60.638 L155.427351,59.8025 C156.088832,60.4175 157.088324,60.7845 158.000556,60.7845 C158.911784,60.7845 159.647486,60.433 159.661529,59.6555 C159.705661,57.7795 155.368676,58.732 155.383219,56.0055 C155.383219,54.54 156.66255,53.91 158.073775,53.91 C159.000048,53.91 159.897234,54.188 160.544171,54.613 L160.10285,55.4925 C159.500045,55.1115 158.720712,54.877 158.000556,54.877" id="Fill-29" fill="#FFFFFE" mask="url(#mask-2)"></path>
                <path d="M73.4092883,5.612 L42.7038559,36.2255 L23.4858168,17.065 L2.45033634,38.0385 L2.45033634,2.7245 L73.4955465,2.7245 L73.4955465,5.6975 L73.4092883,5.612 Z M75.9458829,48.5415 L75.9458829,0.2815 L0,0.2815 L0,76 L75.9458829,76 L75.9458829,65.4665 L73.4955465,65.4665 L73.4955465,73.5575 L2.45033634,73.5575 L2.45033634,41.493 L23.4858168,20.52 L42.7038559,39.6805 L73.4955465,8.9805 L73.4955465,48.5415 L75.9458829,48.5415 Z" id="Fill-31" fill="#FFFFFE" mask="url(#mask-2)"></path>
            </g>
        </g>
    </g>
</svg>