<?xml version="1.0" encoding="UTF-8"?>
<svg width="63px" height="63px" viewBox="0 0 63 63" version="1.1" xmlns="http://www.w3.org/2000/svg" xmlns:xlink="http://www.w3.org/1999/xlink">
    <!-- Generator: Sketch 48.2 (47327) - http://www.bohemiancoding.com/sketch -->
    <title>about</title>
    <desc>Created with Sketch.</desc>
    <defs></defs>
    <g id="Homepage" stroke="none" stroke-width="1" fill="none" fill-rule="evenodd" transform="translate(-227.000000, -660.000000)">
        <g id="about" transform="translate(227.000000, 660.000000)" fill="#A6CFD5" fill-rule="nonzero">
            <path d="M31.395,0 C14.0560203,-1.0617063e-15 2.1234126e-15,14.0560203 0,31.395 C-2.1234126e-15,48.7339797 14.0560203,62.79 31.395,62.79 C48.7339797,62.79 62.79,48.7339797 62.79,31.395 C62.79,23.0685283 59.482322,15.0830872 53.5946174,9.1953826 C47.7069128,3.307678 39.7214717,5.09849346e-16 31.395,0 Z M31.395,13.725 C35.2287951,13.9111207 38.1882318,17.16583 38.01,21 C38.1797071,24.8284381 35.2226715,28.0738015 31.395,28.26 C27.5732863,28.0658425 24.6251297,24.8228702 24.795,21 C24.6166173,17.1714007 27.567165,13.9190925 31.395,13.725 Z M44.25,46.065 L18.54,46.065 L18.54,43.17 C18.54,36.0662374 24.2987374,30.3075 31.4025,30.3075 C38.5062626,30.3075 44.265,36.0662374 44.265,43.17 L44.25,46.065 Z" id="Shape"></path>
        </g>
    </g>
</svg>