<?xml version="1.0" encoding="UTF-8"?>
<svg width="62px" height="62px" viewBox="0 0 62 62" version="1.1" xmlns="http://www.w3.org/2000/svg" xmlns:xlink="http://www.w3.org/1999/xlink">
    <!-- Generator: Sketch 49.3 (51167) - http://www.bohemiancoding.com/sketch -->
    <title>002-gmail</title>
    <desc>Created with Sketch.</desc>
    <defs></defs>
    <g id="Internal-Pages" stroke="none" stroke-width="1" fill="none" fill-rule="evenodd">
        <g id="Contact-Us" transform="translate(-172.000000, -530.000000)" fill="#A6CFD5" fill-rule="nonzero">
            <g id="002-gmail" transform="translate(172.000000, 530.000000)">
                <path d="M30.875,0.5 C14.0992813,0.5 0.5,14.0992813 0.5,30.875 C0.5,47.6507187 14.0992813,61.25 30.875,61.25 C47.6507187,61.25 61.25,47.6507187 61.25,30.875 C61.25,14.0992813 47.6507187,0.5 30.875,0.5 Z M44.5597813,17.375 L30.86375,28.2025625 L16.7222187,17.375 L44.5597813,17.375 Z M45.9688438,44.375 L15.3125938,44.375 L15.3125938,21.9478438 L29.4437188,32.6662813 C29.8225625,32.9559688 30.3830938,33.1008125 30.8350625,33.1008125 C31.2977188,33.1008125 31.6993438,32.9489375 32.0824063,32.6463125 L45.9688438,21.5999375 L45.9688438,44.375 Z" id="Shape"></path>
            </g>
        </g>
    </g>
</svg>