<?xml version="1.0" encoding="UTF-8"?>
<svg width="32px" height="32px" viewBox="0 0 32 32" version="1.1" xmlns="http://www.w3.org/2000/svg" xmlns:xlink="http://www.w3.org/1999/xlink">
    <!-- Generator: Sketch 49.3 (51167) - http://www.bohemiancoding.com/sketch -->
    <title>instagram icon</title>
    <desc>Created with Sketch.</desc>
    <defs></defs>
    <g id="Internal-Pages" stroke="none" stroke-width="1" fill="none" fill-rule="evenodd">
        <g id="Resources" transform="translate(-275.000000, -1436.000000)" fill="#838383">
            <g id="footer" transform="translate(0.000000, 1257.000000)">
                <g id="social-icons" transform="translate(170.000000, 179.000000)">
                    <g id="instagram-icon" transform="translate(105.000000, 0.000000)">
                        <path d="M16.0187,19.0882 C17.7177,19.0882 19.0957,17.7142 19.0957,16.0182 C19.0957,14.3232 17.7177,12.9492 16.0187,12.9492 C14.3197,12.9492 12.9417,14.3232 12.9417,16.0182 C12.9417,17.7142 14.3197,19.0882 16.0187,19.0882" id="Fill-202"></path>
                        <path d="M19.5618,12.8744 L21.7248,12.8744 C21.9718,12.8744 22.1728,12.6744 22.1728,12.4284 L22.1728,10.2694 C22.1728,10.0234 21.9718,9.8234 21.7248,9.8234 L19.5618,9.8234 C19.3148,9.8234 19.1138,10.0234 19.1138,10.2694 L19.1138,12.4284 C19.1138,12.6744 19.3148,12.8744 19.5618,12.8744" id="Fill-203"></path>
                        <path d="M24,22.1024 C24,23.1504 23.149,24.0004 22.098,24.0004 L9.902,24.0004 C8.852,24.0004 8,23.1504 8,22.1024 L8,9.8974 C8,8.8494 8.852,8.0004 9.902,8.0004 L22.098,8.0004 C23.149,8.0004 24,8.8494 24,9.8974 L24,22.1024 Z M16,0.0004 C7.163,0.0004 0,7.1634 0,16.0004 C0,24.8364 7.163,32.0004 16,32.0004 C24.837,32.0004 32,24.8364 32,16.0004 C32,7.1634 24.837,0.0004 16,0.0004 L16,0.0004 Z" id="Fill-204"></path>
                        <path d="M20.8858,16.0186 C20.8858,18.6956 18.7028,20.8746 16.0188,20.8746 C13.3348,20.8746 11.1518,18.6956 11.1518,16.0186 C11.1518,15.5746 11.2118,15.1436 11.3248,14.7346 L9.8278,14.7346 L9.8278,21.6926 C9.8278,21.9396 10.0278,22.1396 10.2748,22.1396 L21.7618,22.1396 C22.0098,22.1396 22.2098,21.9396 22.2098,21.6926 L22.2098,14.7346 L20.7128,14.7346 C20.8258,15.1436 20.8858,15.5746 20.8858,16.0186" id="Fill-205"></path>
                    </g>
                </g>
            </g>
        </g>
    </g>
</svg>