<?xml version="1.0" encoding="UTF-8"?>
<svg width="32px" height="32px" viewBox="0 0 32 32" version="1.1" xmlns="http://www.w3.org/2000/svg" xmlns:xlink="http://www.w3.org/1999/xlink">
    <!-- Generator: Sketch 48.2 (47327) - http://www.bohemiancoding.com/sketch -->
    <title>linkedin</title>
    <desc>Created with Sketch.</desc>
    <defs></defs>
    <g id="Homepage" stroke="none" stroke-width="1" fill="none" fill-rule="evenodd" transform="translate(-222.000000, -2004.000000)">
        <g id="social-icons" transform="translate(170.000000, 2004.000000)" fill="#838383">
            <path d="M76,23.985 L72.685,23.985 L72.685,18.797 C72.685,17.56 72.663,15.969 70.962,15.969 C69.237,15.969 68.974,17.317 68.974,18.709 L68.974,23.985 L65.662,23.985 L65.662,13.317 L68.84,13.317 L68.84,14.776 L68.886,14.776 C69.328,13.937 70.41,13.052 72.023,13.052 C75.38,13.052 76,15.261 76,18.134 L76,23.985 Z M61.924,11.86 C60.859,11.86 60,10.998 60,9.937 C60,8.876 60.859,8.014 61.924,8.014 C62.984,8.014 63.845,8.876 63.845,9.937 C63.845,10.998 62.984,11.86 61.924,11.86 L61.924,11.86 Z M63.582,23.985 L60.263,23.985 L60.263,13.317 L63.582,13.317 L63.582,23.985 Z M68,32 L68,32 C76.836556,32 84,24.836556 84,16 L84,16 C84,7.163444 76.836556,-1.623249e-15 68,0 L68,0 C59.163444,1.623249e-15 52,7.163444 52,16 L52,16 C52,24.836556 59.163444,32 68,32 Z" id="linkedin"></path>
        </g>
    </g>
</svg>