<?xml version="1.0" encoding="UTF-8"?>
<svg width="63px" height="63px" viewBox="0 0 63 63" version="1.1" xmlns="http://www.w3.org/2000/svg" xmlns:xlink="http://www.w3.org/1999/xlink">
    <!-- Generator: Sketch 49.3 (51167) - http://www.bohemiancoding.com/sketch -->
    <title>003-circle</title>
    <desc>Created with Sketch.</desc>
    <defs></defs>
    <g id="Internal-Pages" stroke="none" stroke-width="1" fill="none" fill-rule="evenodd">
        <g id="Contact-Us" transform="translate(-170.000000, -338.000000)" fill="#A6CFD5" fill-rule="nonzero">
            <g id="003-circle" transform="translate(170.000000, 338.000000)">
                <path d="M31.662678,0.95473251 C14.7043624,0.95473251 0.95473251,14.7043057 0.95473251,31.6625514 C0.95473251,48.620544 14.7043624,62.3703704 31.662678,62.3703704 C48.6209937,62.3703704 62.3703704,48.6204175 62.3703704,31.6625514 C62.3704969,14.7043057 48.6209937,0.95473251 31.662678,0.95473251 Z M47.8785025,45.7608384 L45.4197758,48.2200612 C44.9808124,48.6583899 43.6954395,48.9319182 43.6541759,48.9319182 C35.875866,48.9997623 28.3865276,45.9444985 22.8837897,40.441277 C17.3659894,34.920335 14.3071689,27.4043202 14.3893163,19.5998413 C14.3893163,19.5962972 14.6708199,18.3477629 15.1094036,17.913358 L17.5680037,15.4543883 C18.4677014,14.5505173 20.1959616,14.1420602 21.4066551,14.5470997 L21.9238421,14.7196213 C23.1309914,15.1242811 24.3983907,16.4590129 24.7319168,17.6886876 L25.9686848,22.227915 C26.3022109,23.4611338 25.852362,25.2155878 24.9529174,26.1152819 L23.3112348,27.7572109 C24.9230456,33.7242027 29.6049421,38.4069659 35.5729711,40.0226939 L37.2140208,38.3803852 C38.1178956,37.4765142 39.871724,37.0270469 41.1022898,37.3600653 L45.640903,38.6012583 C46.8708359,38.9392132 48.2053201,40.198633 48.609855,41.4053976 L48.7823773,41.9300504 C49.183368,43.1373214 48.7780737,44.8651947 47.8785025,45.7608384 Z" id="Shape"></path>
            </g>
        </g>
    </g>
</svg>