<?xml version="1.0" encoding="UTF-8"?>
<svg width="63px" height="63px" viewBox="0 0 63 63" version="1.1" xmlns="http://www.w3.org/2000/svg" xmlns:xlink="http://www.w3.org/1999/xlink">
    <!-- Generator: Sketch 48.2 (47327) - http://www.bohemiancoding.com/sketch -->
    <title>services</title>
    <desc>Created with Sketch.</desc>
    <defs></defs>
    <g id="Homepage" stroke="none" stroke-width="1" fill="none" fill-rule="evenodd" transform="translate(-762.000000, -660.000000)">
        <g id="services" transform="translate(762.000000, 660.000000)" fill="#A6CFD5" fill-rule="nonzero">
            <path d="M31.5,0 C14.1030304,-1.06525716e-15 2.13051432e-15,14.1030304 0,31.5 C-2.13051432e-15,48.8969696 14.1030304,63 31.5,63 C48.8969696,63 63,48.8969696 63,31.5 C63,23.1456806 59.6812595,15.1335323 53.7738636,9.22613639 C47.8664677,3.31874047 39.8543194,5.11554527e-16 31.5,0 Z M40.6354515,44.09699 C34.1222443,48.8347696 25.0702291,47.8200071 19.7677551,41.7576484 C14.4652811,35.6952897 14.6646503,26.588755 20.2273629,20.7642677 C25.7900755,14.9397804 34.8778286,14.3221517 41.1774463,19.3404423 C47.477064,24.358733 48.9067192,33.3545547 44.4732441,40.0785953 L47.1070234,47.1070234 L40.6354515,44.09699 Z" id="Shape"></path>
            <path d="M26.5,30 C25.6715729,30 25,30.6715729 25,31.5 C25,32.3284271 25.6715729,33 26.5,33 C27.3284271,33 28,32.3284271 28,31.5 C28,30.6715729 27.3284271,30 26.5,30 Z" id="Shape"></path>
            <path d="M31.5,30 C30.6715729,30 30,30.6715729 30,31.5 C30,32.3284271 30.6715729,33 31.5,33 C32.3284271,33 33,32.3284271 33,31.5 C33,30.6715729 32.3284271,30 31.5,30 Z" id="Shape"></path>
            <path d="M36.5,30 C35.6715729,30 35,30.6715729 35,31.5 C35,32.3284271 35.6715729,33 36.5,33 C37.3284271,33 38,32.3284271 38,31.5 C38,30.6715729 37.3284271,30 36.5,30 Z" id="Shape"></path>
        </g>
    </g>
</svg>