<?xml version="1.0" encoding="UTF-8"?>
<svg width="63px" height="63px" viewBox="0 0 63 63" version="1.1" xmlns="http://www.w3.org/2000/svg" xmlns:xlink="http://www.w3.org/1999/xlink">
    <!-- Generator: Sketch 48.2 (47327) - http://www.bohemiancoding.com/sketch -->
    <title>whats_ABA</title>
    <desc>Created with Sketch.</desc>
    <defs></defs>
    <g id="Homepage" stroke="none" stroke-width="1" fill="none" fill-rule="evenodd" transform="translate(-227.000000, -984.000000)">
        <g id="whats_ABA" transform="translate(227.000000, 984.000000)" fill="#A6CFD5" fill-rule="nonzero">
            <path d="M31.5,0 C14.1030304,-1.06525716e-15 2.13051432e-15,14.1030304 0,31.5 C-2.13051432e-15,48.8969696 14.1030304,63 31.5,63 C48.8969696,63 63,48.8969696 63,31.5 C63,23.1456806 59.6812595,15.1335323 53.7738636,9.22613639 C47.8664677,3.31874047 39.8543194,5.11554527e-16 31.5,0 Z M29.5585284,47.4682274 C27.4997241,47.3859704 25.8865984,45.6690739 25.9326905,43.6091426 C25.9787825,41.5492112 27.667088,39.9061859 29.7275111,39.9160987 C31.7879342,39.9260115 33.4603526,41.5852055 33.4866221,43.6454849 C33.4998356,44.6818072 33.0866901,45.6780426 32.3439476,46.4008648 C31.6012051,47.123687 30.5941087,47.5096028 29.5585284,47.4682274 Z M34.9765886,32.8846154 C33.1254181,33.4264214 32.6287625,34.5100334 32.6287625,36.632107 L32.5384615,37.6254181 L26.3979933,37.6254181 L26.3076923,36.632107 C26.3076923,31.8010033 26.3979933,29.6337793 31.229097,27.6020067 L33.0351171,26.8344482 C34.6153846,25.9765886 34.7056856,25.3294314 34.7056856,24.3511706 C34.7056856,22.9966555 33.3963211,21.9130435 31.5,21.9130435 C30.6497214,21.8570672 29.8155584,22.1641037 29.2044738,22.7579746 C28.5933892,23.3518455 28.2626497,24.1768975 28.2943144,25.0284281 L21.9732441,25.0284281 C21.8248896,22.4671336 22.7841031,19.9655485 24.6068654,18.1600636 C26.4296277,16.3545786 28.9402346,15.4192327 31.5,15.5919732 C37.1438127,15.5919732 41.0267559,18.9782609 41.0267559,24.3963211 C41.1785973,28.2734582 38.6911458,31.7633156 34.9765886,32.8846154 Z" id="Shape"></path>
        </g>
    </g>
</svg>